<svg width="24" height="24" viewBox="0 0 24 24" fill="none" xmlns="http://www.w3.org/2000/svg">
<g opacity="0.87">
<path d="M19.32 17.11C18.96 16.38 18.77 15.58 18.77 14.76V11C18.77 7.82 16.65 5.14 13.75 4.28C13.76 4.19 13.77 4.1 13.77 4C13.77 2.9 12.87 2 11.77 2C10.67 2 9.77 2.9 9.77 4C9.77 4.1 9.77999 4.19 9.78999 4.28C6.84999 5.11 4.77 7.78 4.77 11V14.76C4.77 15.58 4.57999 16.38 4.21999 17.11C4.06999 17.4 4 17.71 4 18.01C4 19.05 4.84999 20 6.00999 20H8.95C9.35 21.17 10.46 22 11.77 22C13.08 22 14.19 21.17 14.59 20H17.53C19.02 20 19.99 18.44 19.32 17.11ZM6.00999 18L6.68 16.23C6.74 16.08 6.77 15.92 6.77 15.76V11C6.77 10.68 6.77 8.89 8.2 7.45C9.58 6.06 11.28 6 11.62 6H11.77C12.1 6 13.87 6.03 15.3 7.46C16.73 8.89 16.77 10.66 16.77 11V15.76C16.77 15.92 16.8 16.08 16.86 16.23L17.53 18H6.00999Z" fill="black"/>
</g>
</svg>
