<svg width="19" height="18" viewBox="0 0 19 18" fill="none" xmlns="http://www.w3.org/2000/svg">
<path fill-rule="evenodd" clip-rule="evenodd" d="M9.92285 8C12.132 8 13.9229 6.20914 13.9229 4C13.9229 1.79086 12.132 0 9.92285 0C7.71371 0 5.92285 1.79086 5.92285 4C5.92285 6.20914 7.71371 8 9.92285 8ZM9.92285 6C11.0274 6 11.9229 5.10457 11.9229 4C11.9229 2.89543 11.0274 2 9.92285 2C8.81828 2 7.92285 2.89543 7.92285 4C7.92285 5.10457 8.81828 6 9.92285 6Z" fill="currentColor" />
<path d="M9.92285 8H16.9229C18.0274 8 18.9229 8.89543 18.9229 10V16C18.9229 17.1046 18.0274 18 16.9229 18V10H2.92285L2.92285 18C1.81828 18 0.922852 17.1046 0.922852 16V10C0.922852 8.89543 1.81828 8 2.92285 8H9.92285Z" fill="currentColor" />
<path d="M5.92285 13C5.92285 12.7239 5.69899 12.5 5.42285 12.5C5.14671 12.5 4.92285 12.7239 4.92285 13L4.92285 18H5.92285V13Z" fill="currentColor" />
<path d="M14.4229 12.5C14.699 12.5 14.9229 12.7239 14.9229 13V18H13.9229V13C13.9229 12.7239 14.1467 12.5 14.4229 12.5Z" fill="currentColor" />
<path d="M6.92285 14C6.92285 14.2148 7.08813 14.6143 7.36432 15H7.32477L9.92285 18L12.5209 15H12.4814C12.7576 14.6143 12.9229 14.2148 12.9229 14C12.9229 12.8954 12.0274 12 10.9229 12C10.5209 12.134 10.1908 12.2604 9.92285 12.3951C9.65491 12.2604 9.32477 12.134 8.92285 12C7.8183 12 6.92285 12.8954 6.92285 14Z" fill="currentColor" />
</svg>
