<svg width="25" height="24" viewBox="0 0 25 24" fill="none" xmlns="http://www.w3.org/2000/svg">
<path fill-rule="evenodd" clip-rule="evenodd" d="M16.701 4.29289C17.0916 4.68342 17.0916 5.31658 16.701 5.70711L10.3726 12.0356L16.701 18.364C17.0916 18.7545 17.0916 19.3877 16.701 19.7782C16.3105 20.1687 15.6773 20.1687 15.2868 19.7782L8.47314 12.9645C8.38031 12.9178 8.29325 12.8557 8.21574 12.7782C8.01145 12.5739 7.91403 12.3032 7.92348 12.0356C7.91403 11.7679 8.01145 11.4972 8.21574 11.2929C8.29325 11.2154 8.38032 11.1533 8.47314 11.1066L15.2868 4.29289C15.6773 3.90237 16.3105 3.90237 16.701 4.29289Z" fill="#292929"/>
</svg>
