<svg width="25" height="24" viewBox="0 0 25 24" fill="none" xmlns="http://www.w3.org/2000/svg">
<path d="M4.21574 4.79885C3.82522 4.40833 3.82522 3.77516 4.21574 3.38463L4.30748 3.29289C4.698 2.90237 5.33116 2.90237 5.72169 3.29289L12.9214 10.4926L20.121 3.29294C20.5115 2.90242 21.1447 2.90242 21.5352 3.29294L21.6269 3.38468C22.0174 3.77521 22.0174 4.40838 21.6269 4.7989L14.4273 11.9986L21.6258 19.1972C22.0164 19.5877 22.0164 20.2209 21.6258 20.6114L21.5341 20.7032C21.1436 21.0937 20.5104 21.0937 20.1199 20.7032L12.9214 13.5046L5.72277 20.7032C5.33225 21.0937 4.69909 21.0937 4.30857 20.7032L4.21683 20.6115C3.82631 20.221 3.82631 19.5878 4.21683 19.1973L11.4154 11.9986L4.21574 4.79885Z" fill="#292929"/>
</svg>
