<svg width="24" height="24" viewBox="0 0 24 24" fill="none" xmlns="http://www.w3.org/2000/svg">
<path opacity="0.87" d="M20.85 11.27C20.85 11.27 20.85 11.26 20.84 11.25C20.82 11.19 20.8 11.15 20.77 11.1C20.77 11.08 20.76 11.07 20.75 11.05C20.66 10.87 20.54 10.7 20.39 10.55L13.41 3.58C13.02 3.19 12.51 3 12 3C11.49 3 10.98 3.19 10.59 3.58L3.61 10.54C3.46 10.69 3.34 10.86 3.25 11.04C3.24 11.06 3.23 11.07 3.23 11.09C3.2 11.14 3.18 11.18 3.16 11.24C3.16 11.24 3.15667 11.2467 3.15 11.26C3.05 11.49 3 11.75 3 12.02V18.92C3 20.02 3.9 20.92 5 20.92H19C20.1 20.92 21 20.02 21 18.92V12.02C21 11.75 20.95 11.49 20.85 11.26V11.27ZM11 18.93V14.93C11 14.38 11.45 13.93 12 13.93C12.55 13.93 13 14.38 13 14.93V18.93H11ZM19 18.93H15V14.93C15 13.27 13.66 11.93 12 11.93C10.34 11.93 9 13.27 9 14.93V18.93H5V12.02L5.07 11.91L12 5L18.92 11.9L18.99 12.02V12.05L19 18.93Z" fill="#75500b"/>
</svg>
