<svg width="24" height="24" viewBox="0 0 24 24" fill="none" xmlns="http://www.w3.org/2000/svg">
<g opacity="0.87">
<path d="M12 5H6C4.9 5 4 5.9 4 7V18C4 19.1 4.9 20 6 20H17C18.1 20 19 19.1 19 18V12" stroke="black" stroke-width="2" stroke-miterlimit="10"/>
<path d="M18.4497 6.0001H17.9997H18.4497ZM18.4497 3.8501C17.9397 3.8501 17.4297 4.0501 17.0397 4.4401L8.9797 12.5001C8.6997 12.7801 8.5097 13.1301 8.4297 13.5201L7.98971 15.7301C7.92971 16.0501 8.1697 16.3301 8.4797 16.3301C8.5097 16.3301 8.54971 16.3301 8.57971 16.3301L10.7897 15.8901C11.1797 15.8101 11.5297 15.6201 11.8097 15.3401L19.8697 7.2801C20.6497 6.5001 20.6497 5.2301 19.8697 4.4501C19.4797 4.0601 18.9697 3.8601 18.4597 3.8601L18.4497 3.8501Z" fill="black"/>
</g>
</svg>
