<svg width="25" height="24" viewBox="0 0 25 24" fill="none" xmlns="http://www.w3.org/2000/svg">
<path fill-rule="evenodd" clip-rule="evenodd" d="M17.9229 19C17.9229 20.1046 17.0274 21 15.9229 21H9.92285C8.81828 21 7.92285 20.1046 7.92285 19V13.1547L9.92285 12L7.92285 10.8453V5C7.92285 3.89543 8.81828 3 9.92285 3H15.9229C17.0274 3 17.9229 3.89543 17.9229 5V10.8453L15.9229 12L17.9229 13.1547V19ZM9.92285 5H15.9229V10L14.0759 11.2313C13.9773 11.4679 13.9229 11.7276 13.9229 12L15.9229 14V16H9.92285V14L11.9229 12C11.9229 11.7276 11.8684 11.4679 11.7698 11.2313L9.92285 10V5Z" fill="#292929"/>
</svg>
