<svg width="30" height="30" viewBox="0 0 30 30" fill="none" xmlns="http://www.w3.org/2000/svg">
<path d="M15 5C19.1375 5 22.5 8.3625 22.5 12.5V17.5C22.5 21.6375 19.1375 25 15 25C10.8625 25 7.5 21.6375 7.5 17.5V12.5C7.5 8.3625 10.8625 5 15 5ZM15 2.5C9.5 2.5 5 7 5 12.5V17.5C5 23 9.5 27.5 15 27.5C20.5 27.5 25 23 25 17.5V12.5C25 7 20.5 2.5 15 2.5Z" fill="currentColor" />
<path d="M10 18.75C10 18.75 14.9875 23.75 19.9875 18.75" stroke="currentColor"  stroke-width="3" stroke-miterlimit="10"/>
<path d="M19.375 10H16.875V13.75H19.375V10Z" fill="currentColor" />
<path d="M13.125 10H10.625V13.75H13.125V10Z" fill="currentColor" />
</svg>
