<?xml version="1.0" encoding="UTF-8"?>
<svg id="Layer_2" data-name="Layer 2" xmlns="http://www.w3.org/2000/svg" viewBox="0 0 24 24">
  <defs>
    <style>
      .cls-1 {
        stroke-width: 0px;
      }
    </style>
  </defs>
  <path class="cls-1" d="M12,4c3.31,0,6,2.69,6,6v4c0,3.31-2.69,6-6,6s-6-2.69-6-6v-4c0-3.31,2.69-6,6-6M12,2h0c-4.4,0-8,3.6-8,8v4c0,4.4,3.6,8,8,8h0c4.4,0,8-3.6,8-8v-4c0-4.4-3.6-8-8-8h0Z"/>
  <path class="cls-1" d="M12.14,17.78h0c-2.75,0-4.76-1.99-4.84-2.07l1.42-1.41-.71.71.71-.71c.34.33,3.4,3.18,6.58,0l1.41,1.42c-1.38,1.37-2.91,2.07-4.56,2.07Z"/>
  <rect class="cls-1" x="13.5" y="8" width="2" height="3"/>
  <rect class="cls-1" x="8.5" y="8" width="2" height="3"/>
</svg>