<?xml version="1.0" encoding="UTF-8"?>
<svg id="Layer_2" data-name="Layer 2" xmlns="http://www.w3.org/2000/svg" viewBox="0 0 24 24">
  <defs>
    <style>
      .cls-1 {
        stroke-width: 0px;
      }
    </style>
  </defs>
  <path class="cls-1" d="M12,8c1.65,0,3,1.35,3,3s-1.35,3-3,3-3-1.35-3-3,1.35-3,3-3M12,6c-2.76,0-5,2.24-5,5s2.24,5,5,5,5-2.24,5-5-2.24-5-5-5h0Z"/>
  <path class="cls-1" d="M18.24,16c1.1-1.37,1.76-3.11,1.76-5,0-4.42-3.58-8-8-8S4,6.58,4,11c0,1.89.66,3.63,1.76,5h-2.76v3c0,1.1.9,2,2,2h14c1.1,0,2-.9,2-2v-3h-2.76ZM6,11c0-3.31,2.69-6,6-6s6,2.69,6,6c0,2.09-1.07,3.92-2.69,5h-6.62c-1.62-1.08-2.69-2.91-2.69-5ZM19,19H5v-1h14v1Z"/>
</svg>