<svg width="30" height="30" viewBox="0 0 30 30" fill="none" xmlns="http://www.w3.org/2000/svg">
<path d="M15 10C17.0625 10 18.75 11.6875 18.75 13.75C18.75 15.8125 17.0625 17.5 15 17.5C12.9375 17.5 11.25 15.8125 11.25 13.75C11.25 11.6875 12.9375 10 15 10ZM15 7.5C11.55 7.5 8.75 10.3 8.75 13.75C8.75 17.2 11.55 20 15 20C18.45 20 21.25 17.2 21.25 13.75C21.25 10.3 18.45 7.5 15 7.5Z" fill="currentColor" />
<path d="M22.8 20C24.175 18.2875 25 16.1125 25 13.75C25 8.225 20.525 3.75 15 3.75C9.475 3.75 5 8.225 5 13.75C5 16.1125 5.825 18.2875 7.2 20H3.75V23.75C3.75 25.125 4.875 26.25 6.25 26.25H23.75C25.125 26.25 26.25 25.125 26.25 23.75V20H22.8ZM7.5 13.75C7.5 9.6125 10.8625 6.25 15 6.25C19.1375 6.25 22.5 9.6125 22.5 13.75C22.5 16.3625 21.1625 18.65 19.1375 20H10.8625C8.8375 18.65 7.5 16.3625 7.5 13.75ZM23.75 23.75H6.25V22.5H23.75V23.75Z" fill="currentColor" />
</svg>
