<svg width="25" height="24" viewBox="0 0 25 24" fill="none" xmlns="http://www.w3.org/2000/svg">
<path d="M13.9229 11V8C13.9229 7.44772 13.4751 7 12.9229 7C12.3706 7 11.9229 7.44772 11.9229 8V12C11.9229 12.5523 12.3706 13 12.9229 13H14.9229C15.4751 13 15.9229 12.5523 15.9229 12C15.9229 11.4477 15.4751 11 14.9229 11H13.9229Z" fill="#292929"/>
<path d="M17.8928 15.9921V17.4944C17.8928 17.7709 17.6703 17.9951 17.3958 17.9951C17.1213 17.9951 16.8988 17.7709 16.8988 17.4944V15.9921C16.8988 15.7155 17.1213 15.4913 17.3958 15.4913C17.6703 15.4913 17.8928 15.7155 17.8928 15.9921Z" fill="#292929"/>
<path d="M17.3958 19.4974C17.6703 19.4974 17.8928 19.2732 17.8928 18.9967C17.8928 18.7201 17.6703 18.4959 17.3958 18.4959C17.1213 18.4959 16.8988 18.7201 16.8988 18.9967C16.8988 19.2732 17.1213 19.4974 17.3958 19.4974Z" fill="#292929"/>
<path fill-rule="evenodd" clip-rule="evenodd" d="M12.9229 21C13.0584 21 13.1933 20.997 13.3275 20.9911C13.3574 20.9967 13.3883 20.9997 13.4198 20.9997H21.3717C21.38 20.9997 21.3882 20.9995 21.3964 20.9991C21.48 21.0042 21.5661 20.988 21.6466 20.9477C21.8925 20.8248 21.9929 20.5244 21.871 20.2766L20.3205 17.1273C21.3308 15.6724 21.9229 13.9054 21.9229 12C21.9229 7.02944 17.8934 3 12.9229 3C7.95229 3 3.92285 7.02944 3.92285 12C3.92285 16.9706 7.95229 21 12.9229 21ZM19.261 14.9751C19.6856 14.0722 19.9229 13.0638 19.9229 12C19.9229 8.13401 16.7888 5 12.9229 5C9.05686 5 5.92285 8.13401 5.92285 12C5.92285 15.866 9.05686 19 12.9229 19C13.1623 19 13.399 18.988 13.6322 18.9645L16.8923 12.2903C16.9851 12.1003 17.1815 11.9958 17.3791 12.0122C17.5975 11.9625 17.8295 12.0672 17.9334 12.2783L19.261 14.9751ZM14.2352 19.9982L17.4172 13.4836L20.6244 19.9982H14.2352Z" fill="#292929"/>
</svg>
