<svg width="25" height="24" viewBox="0 0 25 24" fill="none" xmlns="http://www.w3.org/2000/svg">
<path fill-rule="evenodd" clip-rule="evenodd" d="M15.9229 12C15.9229 13.6569 14.5797 15 12.9229 15C11.266 15 9.92285 13.6569 9.92285 12C9.92285 10.3431 11.266 9 12.9229 9C14.5797 9 15.9229 10.3431 15.9229 12ZM14.4229 12C14.4229 12.8284 13.7513 13.5 12.9229 13.5C12.0944 13.5 11.4229 12.8284 11.4229 12C11.4229 11.1716 12.0944 10.5 12.9229 10.5C13.7513 10.5 14.4229 11.1716 14.4229 12Z" fill="#292929"/>
<path fill-rule="evenodd" clip-rule="evenodd" d="M9.85248 4C9.85248 3.44772 10.3002 3 10.8525 3H14.8525C15.4048 3 15.8525 3.44772 15.8525 4V5.67363C16.1944 5.83605 16.521 6.02537 16.8297 6.23886L18.2794 5.40186C18.7577 5.12571 19.3693 5.28959 19.6454 5.76788L21.6455 9.23198C21.9216 9.71027 21.7577 10.3219 21.2794 10.598L19.83 11.4348C19.8449 11.6213 19.8525 11.8097 19.8525 12C19.8525 12.1901 19.8449 12.3785 19.83 12.5647L21.28 13.4019C21.7583 13.678 21.9222 14.2896 21.646 14.7679L19.646 18.232C19.3699 18.7103 18.7583 18.8742 18.28 18.598L16.83 17.7609C16.5213 17.9745 16.1945 18.1639 15.8525 18.3264V20C15.8525 20.5523 15.4048 21 14.8525 21H10.8525C10.3002 21 9.85248 20.5523 9.85248 20V18.3264C9.51011 18.1637 9.18304 17.9741 8.87402 17.7603L7.42302 18.598C6.94473 18.8742 6.33314 18.7103 6.05699 18.232L4.05699 14.7679C3.78085 14.2896 3.94473 13.678 4.42302 13.4019L5.87484 12.5636C5.86003 12.3777 5.85248 12.1897 5.85248 12C5.85248 11.8101 5.86004 11.622 5.87488 11.4359L4.42358 10.598C3.94529 10.3219 3.78142 9.71029 4.05756 9.232L6.05756 5.7679C6.3337 5.2896 6.94529 5.12573 7.42358 5.40187L8.87437 6.23948C9.18329 6.02574 9.51024 5.83621 9.85248 5.67363V4ZM13.9229 5H11.9229V7.10002C10.8407 7.31968 9.88546 7.88884 9.18008 8.68455L7.36034 7.63392L6.36034 9.36597L8.17897 10.416C8.01284 10.9137 7.92285 11.4464 7.92285 12C7.92285 12.5538 8.01287 13.0865 8.17908 13.5844L6.36101 14.634L7.36101 16.3661L9.18031 15.3157C9.88567 16.1113 10.8408 16.6803 11.9229 16.9V19H13.9229V16.9C15.0049 16.6803 15.9601 16.1112 16.6655 15.3156L18.4847 16.366L19.4847 14.6339L17.6667 13.5843C17.8328 13.0864 17.9229 12.5537 17.9229 12C17.9229 11.4464 17.8329 10.9138 17.6668 10.4161L19.4854 9.36608L18.4854 7.63403L16.6657 8.68462C15.9603 7.88888 15.005 7.31969 13.9229 7.10002V5Z" fill="#292929"/>
</svg>
