<svg width="25" height="24" viewBox="0 0 25 24" fill="none" xmlns="http://www.w3.org/2000/svg">
<path d="M20.9229 12L17.9229 9" stroke="black" stroke-width="2" stroke-linecap="round" stroke-linejoin="round"/>
<path d="M17.9229 15L20.9229 12" stroke="black" stroke-width="2" stroke-linecap="round" stroke-linejoin="round"/>
<path d="M12.9229 12H20.9229" stroke="black" stroke-width="2" stroke-linecap="round" stroke-linejoin="round"/>
<path d="M6.92285 3H18.9229C20.5729 3 21.9229 4.35 21.9229 6V7H19.9229V6C19.9229 5.45 19.4729 5 18.9229 5H6.92285C6.37285 5 5.92285 5.45 5.92285 6V18C5.92285 18.55 6.37285 19 6.92285 19H18.9229C19.4729 19 19.9229 18.55 19.9229 18V17H21.9229V18C21.9229 19.65 20.5729 21 18.9229 21H6.92285C5.27285 21 3.92285 19.65 3.92285 18V6C3.92285 4.35 5.27285 3 6.92285 3Z" fill="black" stroke="black" stroke-width="0.1" stroke-linecap="round" stroke-linejoin="round"/>
</svg>
