<svg width="25" height="24" viewBox="0 0 25 24" fill="none" xmlns="http://www.w3.org/2000/svg">
<path d="M8.22764 10.3148C7.84913 10.1466 7.40591 10.3171 7.23768 10.6956C7.06945 11.0741 7.23992 11.5173 7.61843 11.6855L12.8264 14.0002L7.61843 16.3148C7.23992 16.4831 7.06945 16.9263 7.23768 17.3048C7.40591 17.6833 7.84913 17.8538 8.22764 17.6855L14.673 14.8209L15.3969 15.1426C15.2542 15.396 15.1729 15.6885 15.1729 16C15.1729 16.9665 15.9564 17.75 16.9229 17.75C17.8893 17.75 18.6729 16.9665 18.6729 16C18.6729 15.0941 17.9844 14.3489 17.1022 14.2591L16.5197 14.0002L17.1033 13.7408C17.985 13.6505 18.6729 12.9056 18.6729 12C18.6729 11.0335 17.8893 10.25 16.9229 10.25C15.9564 10.25 15.1729 11.0335 15.1729 12C15.1729 12.3116 15.2543 12.6042 15.3971 12.8577L14.673 13.1794L8.22764 10.3148Z" fill="black"/>
<path fill-rule="evenodd" clip-rule="evenodd" d="M6.25285 3C5.82214 3 5.43983 3.27578 5.30393 3.68448L3.97393 7.68448C3.9401 7.78624 3.92285 7.89277 3.92285 8V17.69C3.92285 19.5251 5.41339 21 7.23285 21H18.6129C20.448 21 21.9229 19.5095 21.9229 17.69V8C21.9229 7.89277 21.9056 7.78624 21.8718 7.68448L20.5418 3.68448C20.4059 3.27578 20.0236 3 19.5929 3H6.25285ZM6.30918 7L6.97418 5H18.8715L19.5365 7H6.30918ZM5.92285 9H19.9229V17.69C19.9229 18.4105 19.3378 19 18.6129 19H7.23285C6.51232 19 5.92285 18.4149 5.92285 17.69V9Z" fill="black"/>
</svg>
