<svg width="25" height="24" viewBox="0 0 25 24" fill="none" xmlns="http://www.w3.org/2000/svg">
<path d="M9.3673 8C9.12184 8 8.92285 8.19898 8.92285 8.44444C8.92285 8.6145 9.01835 8.76224 9.15865 8.83697C9.17886 8.87502 9.205 8.91075 9.23705 8.94281L12.3258 12.0316L9.23705 15.1203C9.23223 15.1252 9.22753 15.1301 9.22297 15.1351C9.04836 15.195 8.92285 15.3606 8.92285 15.5556C8.92285 15.801 9.12184 16 9.3673 16H16.4784C16.7239 16 16.9229 15.801 16.9229 15.5556V14.6667C16.9229 14.4212 16.7239 14.2222 16.4784 14.2222C16.2329 14.2222 16.034 14.4212 16.034 14.6667V15.1111H10.5034L13.2718 12.3427C13.4454 12.1691 13.4454 11.8877 13.2718 11.7141C13.2566 11.6989 13.2405 11.685 13.2238 11.6725L10.4402 8.88889H16.034V9.33333C16.034 9.57879 16.2329 9.77778 16.4784 9.77778C16.7239 9.77778 16.9229 9.57879 16.9229 9.33333V8.44444C16.9229 8.19898 16.7239 8 16.4784 8H9.3673Z" fill="#292929"/>
<path fill-rule="evenodd" clip-rule="evenodd" d="M21.9229 12C21.9229 16.9706 17.8934 21 12.9229 21C7.95229 21 3.92285 16.9706 3.92285 12C3.92285 7.02944 7.95229 3 12.9229 3C17.8934 3 21.9229 7.02944 21.9229 12ZM19.9229 12C19.9229 15.866 16.7888 19 12.9229 19C9.05686 19 5.92285 15.866 5.92285 12C5.92285 8.13401 9.05686 5 12.9229 5C16.7888 5 19.9229 8.13401 19.9229 12Z" fill="#292929"/>
</svg>
