<svg width="25" height="24" viewBox="0 0 25 24" fill="none" xmlns="http://www.w3.org/2000/svg">
<path d="M3.92285 4C3.92285 3.44772 4.37057 3 4.92285 3H20.9229C21.4751 3 21.9229 3.44772 21.9229 4V6C21.9229 6.55228 21.4751 7 20.9229 7C20.3706 7 19.9229 6.55228 19.9229 6V5H7.33691L13.6 11.2631C13.6376 11.2913 13.6737 11.3225 13.708 11.3568C14.0985 11.7473 14.0985 12.3805 13.708 12.771L7.479 19H19.9229V18C19.9229 17.4477 20.3706 17 20.9229 17C21.4751 17 21.9229 17.4477 21.9229 18V20C21.9229 20.5523 21.4751 21 20.9229 21H4.92285C4.37057 21 3.92285 20.5523 3.92285 20C3.92285 19.5614 4.20523 19.1887 4.59813 19.0539C4.60838 19.0427 4.61894 19.0316 4.62981 19.0208L11.5795 12.071L4.62981 5.12132C4.55768 5.0492 4.49888 4.9688 4.4534 4.88318C4.13773 4.71504 3.92285 4.38261 3.92285 4Z" fill="#292929"/>
</svg>
