<?xml version="1.0" encoding="UTF-8"?>
<svg id="Layer_1" data-name="Layer 1" xmlns="http://www.w3.org/2000/svg" viewBox="0 0 16 12.9">
  <defs>
    <style>
      .cls-1 {
        fill: #87bbd7;
      }

      .cls-1, .cls-2, .cls-3 {
        stroke-width: 0px;
      }

      .cls-2 {
        fill: #f26419;
      }

      .cls-3 {
        fill: #f5b02c;
      }
    </style>
  </defs>
  <path class="cls-1" d="M4.66,11.4c-.78-1.33-1.21-3.09-1.21-4.96s.43-3.63,1.21-4.96c.2-.35.42-.65.66-.92C4.85.2,4.33,0,3.78,0,1.69,0,0,2.89,0,6.45s1.69,6.45,3.78,6.45c.55,0,1.07-.2,1.55-.56-.24-.27-.46-.58-.67-.93Z"/>
  <ellipse class="cls-3" cx="12.22" cy="6.45" rx="3.78" ry="6.45"/>
  <path class="cls-2" d="M8.94,11.42c-.78-1.33-1.21-3.09-1.21-4.96s.43-3.63,1.21-4.96c.21-.35.43-.66.67-.93C9.13.2,8.61,0,8.06,0,5.97,0,4.28,2.89,4.28,6.45s1.69,6.45,3.78,6.45c.55,0,1.07-.2,1.54-.56-.24-.27-.46-.57-.66-.92Z"/>
</svg>