<?xml version="1.0" encoding="utf-8"?>
<!-- Generator: Adobe Illustrator 28.3.0, SVG Export Plug-In . SVG Version: 6.00 Build 0)  -->
<svg version="1.1" id="Layer_1" xmlns="http://www.w3.org/2000/svg" xmlns:xlink="http://www.w3.org/1999/xlink" x="0px" y="0px"
	 viewBox="0 0 87.2 100.8" style="enable-background:new 0 0 87.2 100.8;" xml:space="preserve">
<style type="text/css">
	.st0{fill:#87BBD7;}
	.st1{fill:#F5B02C;}
	.st2{fill:#F26419;}
</style>
<g>
	<path class="st0" d="M25.6,62.2c-4.2-7.2-6.5-16.6-6.5-26.7S21.4,16,25.6,8.8c1.1-1.9,2.3-3.5,3.6-5c-2.5-1.9-5.3-3-8.3-3
		C9.7,0.9,0.6,16.4,0.6,35.5s9.1,34.7,20.3,34.7c3,0,5.8-1.1,8.3-3C27.9,65.7,26.7,64,25.6,62.2L25.6,62.2z"/>
	<ellipse class="st1" cx="66.3" cy="35.5" rx="20.3" ry="34.7"/>
	<path class="st2" d="M48.6,62.2c-4.2-7.2-6.5-16.6-6.5-26.7S44.4,16,48.6,8.9c1.1-1.9,2.3-3.6,3.6-5c-2.5-1.9-5.3-3-8.3-3
		c-11.2,0-20.3,15.5-20.3,34.7s9.1,34.7,20.3,34.7c2.9,0,5.7-1.1,8.3-3C50.9,65.8,49.7,64.1,48.6,62.2L48.6,62.2z"/>
</g>
<g>
	<path d="M6.1,100V80.6H8v17.5h5.5v1.8C13.6,100,6.1,100,6.1,100z"/>
	<path d="M17.3,86.4v8.7c0,0.4,0,0.8,0.1,1.3s0.1,0.8,0.3,1.2s0.4,0.7,0.6,0.9c0.3,0.2,0.6,0.3,1.1,0.3s0.9-0.1,1.2-0.4
		s0.6-0.6,0.9-1s0.4-0.9,0.6-1.5c0.1-0.6,0.2-1.1,0.2-1.7v-7.8h1.8v10.1c0,0.3,0,0.6,0,0.9c0,0.3,0,0.7,0,1c0,0.3,0,0.6,0,0.9
		c0,0.3,0,0.5,0,0.6h-1.8c0-0.3-0.1-0.8-0.1-1.3c0-0.5,0-1,0-1.4h0c-0.3,0.9-0.7,1.7-1.3,2.2c-0.6,0.6-1.3,0.9-2.2,0.9
		c-0.7,0-1.3-0.2-1.8-0.5s-0.8-0.7-1-1.2c-0.2-0.5-0.4-1.1-0.5-1.7s-0.1-1.2-0.1-1.9v-8.7L17.3,86.4L17.3,86.4z"/>
	<path d="M31.5,86.8c0.6-0.6,1.3-0.9,2.2-0.9c0.5,0,0.9,0.1,1.3,0.3c0.3,0.2,0.7,0.4,0.9,0.7c0.2,0.3,0.4,0.6,0.6,1
		c0.1,0.4,0.2,0.8,0.3,1.2h0c0.1-0.4,0.3-0.8,0.5-1.2s0.5-0.7,0.8-1c0.3-0.3,0.6-0.5,1-0.7s0.8-0.3,1.3-0.3c0.7,0,1.3,0.2,1.7,0.5
		s0.8,0.7,1,1.2c0.2,0.5,0.4,1.1,0.5,1.7c0.1,0.6,0.1,1.2,0.1,1.9v8.7H42v-8.7c0-0.4,0-0.8-0.1-1.3s-0.1-0.8-0.3-1.2
		s-0.4-0.7-0.6-0.9c-0.3-0.2-0.7-0.3-1.1-0.3c-0.4,0-0.8,0.1-1.2,0.4c-0.3,0.2-0.7,0.6-0.9,1c-0.2,0.4-0.4,0.9-0.5,1.5
		C37.1,91,37,91.5,37,92.1v7.8h-1.8v-8.7c0-0.4,0-0.8-0.1-1.3c0-0.4-0.1-0.8-0.3-1.2c-0.1-0.3-0.3-0.6-0.6-0.9s-0.7-0.3-1.1-0.3
		s-0.8,0.1-1.2,0.4c-0.3,0.2-0.6,0.6-0.9,1s-0.4,0.9-0.6,1.5c-0.1,0.6-0.2,1.1-0.2,1.7v7.8h-1.8V89.8c0-0.3,0-0.6,0-0.9
		c0-0.3,0-0.7,0-1c0-0.3,0-0.6,0-0.9c0-0.3,0-0.5,0-0.6h1.8c0,0.3,0.1,0.8,0.1,1.3c0,0.5,0,1,0,1.4h0C30.6,88.2,30.9,87.4,31.5,86.8
		L31.5,86.8z"/>
	<path d="M50,82.3c0,0.4-0.1,0.7-0.3,0.9s-0.5,0.4-0.8,0.4c-0.3,0-0.6-0.1-0.9-0.4s-0.3-0.6-0.3-0.9s0.1-0.7,0.3-0.9
		c0.2-0.2,0.5-0.4,0.9-0.4s0.6,0.1,0.9,0.4S50,81.9,50,82.3z M47.9,100V86.4h1.8V100H47.9z"/>
	<path d="M54.9,93.6c0,0.8,0.1,1.4,0.2,2.1c0.1,0.6,0.3,1.2,0.6,1.6c0.2,0.5,0.6,0.8,0.9,1.1c0.4,0.3,0.8,0.4,1.3,0.4
		c0.7,0,1.2-0.2,1.6-0.6s0.7-0.9,0.9-1.4l1.4,0.8c-0.3,0.8-0.8,1.5-1.5,2.1c-0.7,0.6-1.5,0.8-2.5,0.8c-1.5,0-2.7-0.6-3.5-1.9
		c-0.8-1.3-1.3-3-1.3-5.3c0-1.1,0.1-2,0.3-2.9s0.5-1.7,0.9-2.3c0.4-0.6,0.9-1.1,1.5-1.5s1.2-0.5,2-0.5c0.8,0,1.5,0.2,2,0.5
		c0.5,0.3,1,0.8,1.3,1.4c0.3,0.6,0.6,1.3,0.8,2.1c0.2,0.8,0.2,1.7,0.2,2.6v1H54.9L54.9,93.6z M57.6,84.4l-2.9-3.9h2l2.5,3.9H57.6z
		 M60.4,92.1c0-1.4-0.2-2.5-0.6-3.3c-0.4-0.8-1.1-1.2-2-1.2c-0.5,0-1,0.2-1.3,0.5s-0.7,0.7-0.9,1.2s-0.4,1-0.5,1.5
		c-0.1,0.5-0.2,1-0.2,1.4H60.4L60.4,92.1z"/>
	<path d="M68.5,86.8c0.5-0.5,1.1-0.8,1.8-0.8c0.2,0,0.2,0,0.3,0l-0.1,1.9c-0.1,0-0.1,0-0.2,0c-0.1,0-0.1,0-0.2,0
		c-0.4,0-0.9,0.2-1.2,0.5s-0.7,0.7-0.9,1.2s-0.4,1.1-0.5,1.7c-0.1,0.6-0.2,1.2-0.2,1.9v6.9h-1.8V89.9c0-0.3,0-0.6,0-0.9
		c0-0.3,0-0.7,0-1c0-0.3,0-0.6,0-0.9c0-0.3,0-0.5,0-0.6h1.8c0,0.3,0.1,0.8,0.1,1.3c0,0.5,0,1.1,0,1.7h0.1
		C67.6,88.2,68,87.4,68.5,86.8L68.5,86.8z"/>
	<path d="M73.7,93.6c0,0.8,0.1,1.4,0.2,2.1c0.1,0.6,0.3,1.2,0.6,1.6c0.2,0.5,0.6,0.8,0.9,1.1c0.4,0.3,0.8,0.4,1.3,0.4
		c0.7,0,1.2-0.2,1.6-0.6c0.4-0.4,0.7-0.9,0.9-1.4l1.4,0.8c-0.3,0.8-0.8,1.5-1.5,2.1c-0.7,0.6-1.5,0.8-2.5,0.8
		c-1.5,0-2.7-0.6-3.5-1.9c-0.8-1.3-1.3-3-1.3-5.3c0-1.1,0.1-2,0.3-2.9s0.5-1.7,0.9-2.3c0.4-0.6,0.9-1.1,1.5-1.5s1.2-0.5,2-0.5
		c0.8,0,1.5,0.2,2,0.5c0.6,0.3,1,0.8,1.3,1.4c0.3,0.6,0.6,1.3,0.8,2.1c0.2,0.8,0.2,1.7,0.2,2.6v1H73.7L73.7,93.6z M79.2,92.1
		c0-1.4-0.2-2.5-0.6-3.3s-1.1-1.2-2-1.2c-0.5,0-1,0.2-1.3,0.5s-0.7,0.7-0.9,1.2c-0.2,0.5-0.4,1-0.5,1.5s-0.2,1-0.2,1.4H79.2
		L79.2,92.1z"/>
</g>
</svg>
