<?xml version="1.0" encoding="UTF-8"?>
<svg id="Layer_1" data-name="Layer 1" xmlns="http://www.w3.org/2000/svg" viewBox="0 0 115.03 24">
  <defs>
    <style>
      .cls-1, .cls-2, .cls-3, .cls-4 {
        stroke-width: 0px;
      }

      .cls-2 {
        fill: #87bbd7;
      }

      .cls-3 {
        fill: #f26419;
      }

      .cls-4 {
        fill: #f5b02c;
      }
    </style>
  </defs>
  <g>
    <path class="cls-2" d="M8.67,21.22c-1.45-2.48-2.25-5.75-2.25-9.23s.8-6.76,2.25-9.23c.38-.65.79-1.22,1.23-1.71C9.02.37,8.05,0,7.03,0,3.15,0,0,5.37,0,12s3.15,12,7.03,12c1.03,0,2-.38,2.88-1.05-.44-.5-.86-1.08-1.24-1.73Z"/>
    <ellipse class="cls-4" cx="22.74" cy="12" rx="7.03" ry="12"/>
    <path class="cls-3" d="M16.63,21.25c-1.45-2.48-2.25-5.75-2.25-9.23s.8-6.76,2.25-9.23c.38-.65.8-1.23,1.24-1.73C17,.38,16.02,0,15,0,11.11,0,7.97,5.37,7.97,12s3.15,12,7.03,12c1.02,0,1.99-.37,2.86-1.04-.44-.5-.85-1.07-1.23-1.71Z"/>
  </g>
  <g>
    <path class="cls-1" d="M37.6,21.83V1.86h1.98v18.14h5.7v1.83h-7.68Z"/>
    <path class="cls-1" d="M49.14,7.84v9.03c0,.43.02.87.07,1.31.05.44.15.85.31,1.21.16.37.38.67.66.9.28.24.67.35,1.16.35s.89-.13,1.26-.38c.37-.25.68-.6.93-1.04.25-.44.45-.95.59-1.52.14-.57.21-1.17.21-1.79V7.84h1.86v10.47c0,.3,0,.63.01.97,0,.35.02.69.03,1.02,0,.33.02.63.03.92,0,.28.02.49.04.62h-1.81c-.04-.36-.07-.79-.08-1.3-.02-.51-.03-.99-.03-1.44h-.06c-.26.94-.7,1.71-1.3,2.3-.6.59-1.35.89-2.26.89-.75,0-1.36-.16-1.82-.48-.46-.32-.81-.74-1.06-1.26-.24-.52-.41-1.1-.49-1.74-.08-.64-.13-1.29-.13-1.95V7.84h1.86Z"/>
    <path class="cls-1" d="M63.85,8.28c.59-.59,1.35-.89,2.29-.89.51,0,.94.09,1.31.27.37.18.67.41.93.71.25.29.45.63.59,1.03.14.39.25.8.32,1.21h.06c.11-.41.27-.81.48-1.2.21-.39.46-.73.77-1.03.31-.3.67-.54,1.07-.72s.86-.27,1.36-.27c.75,0,1.35.16,1.8.48.45.32.8.74,1.05,1.26.25.52.42,1.1.51,1.75.08.65.13,1.29.13,1.93v9.03h-1.86v-9.03c0-.43-.02-.87-.07-1.31-.05-.44-.15-.85-.3-1.21-.15-.37-.37-.67-.66-.9-.29-.23-.68-.35-1.17-.35-.45,0-.86.13-1.23.38-.37.25-.67.6-.92,1.04-.24.44-.43.95-.56,1.52-.13.57-.2,1.17-.2,1.79v8.07h-1.86v-9.03c0-.43-.02-.87-.07-1.33-.05-.45-.14-.86-.28-1.23-.14-.37-.36-.66-.65-.89s-.67-.34-1.14-.34-.88.13-1.24.38c-.36.25-.66.6-.91,1.04-.25.44-.44.95-.58,1.52-.13.57-.2,1.17-.2,1.79v8.07h-1.86v-10.47c0-.3,0-.63-.01-.97,0-.35-.02-.69-.03-1.02,0-.33-.02-.63-.03-.9,0-.27-.02-.48-.04-.63h1.83c.04.36.07.79.08,1.3.02.51.03.99.03,1.44h.06c.21-.94.6-1.71,1.19-2.3Z"/>
    <path class="cls-1" d="M82.95,3.55c0,.39-.12.72-.37.97s-.54.38-.87.38c-.36,0-.65-.13-.89-.38-.24-.25-.35-.58-.35-.97s.12-.7.35-.96c.23-.26.53-.4.89-.4s.65.13.89.4.35.58.35.96ZM80.78,21.83V7.84h1.86v14h-1.86Z"/>
    <path class="cls-1" d="M88,15.23c0,.77.07,1.48.2,2.13.13.65.33,1.21.58,1.69.26.48.58.86.96,1.13.39.27.85.41,1.38.41.68,0,1.23-.21,1.64-.62.42-.41.74-.91.96-1.5l1.41.82c-.34.85-.84,1.56-1.51,2.13-.67.57-1.52.86-2.55.86-1.56,0-2.78-.66-3.64-1.98-.87-1.32-1.3-3.13-1.3-5.45,0-1.09.11-2.1.34-3.02.23-.92.55-1.71.97-2.37.42-.66.94-1.17,1.55-1.54.61-.37,1.29-.55,2.04-.55.82,0,1.52.18,2.1.54.57.36,1.04.85,1.39,1.47.36.62.61,1.35.77,2.17.16.83.24,1.71.24,2.65v1.02h-7.53ZM90.86,5.78l-3-4.06h2.04l2.55,4.06h-1.58ZM93.67,13.68c0-1.41-.22-2.54-.65-3.4-.44-.86-1.12-1.28-2.04-1.28-.55,0-1.01.17-1.38.49-.37.33-.67.73-.91,1.21-.24.48-.41.99-.51,1.54-.1.55-.16,1.03-.16,1.44h5.64Z"/>
    <path class="cls-1" d="M102.11,8.23c.55-.55,1.17-.82,1.86-.82.15,0,.26,0,.34.03l-.06,1.92c-.08-.02-.15-.03-.21-.04-.07,0-.15-.01-.24-.01-.47,0-.89.16-1.26.48-.37.32-.67.73-.92,1.24-.24.51-.43,1.09-.55,1.74-.12.65-.18,1.29-.18,1.93v7.14h-1.86v-10.47c0-.3,0-.63-.01-.97,0-.35-.02-.69-.03-1.02,0-.33-.02-.63-.03-.9,0-.27-.02-.48-.04-.63h1.81c.04.36.07.8.08,1.34.02.54.03,1.11.03,1.71h.06c.26-1.22.67-2.11,1.21-2.65Z"/>
    <path class="cls-1" d="M107.5,15.23c0,.77.07,1.48.2,2.13.13.65.33,1.21.58,1.69.26.48.58.86.96,1.13.39.27.85.41,1.38.41.68,0,1.23-.21,1.64-.62.42-.41.74-.91.96-1.5l1.41.82c-.34.85-.84,1.56-1.51,2.13-.67.57-1.52.86-2.55.86-1.56,0-2.78-.66-3.64-1.98-.87-1.32-1.3-3.13-1.3-5.45,0-1.09.11-2.1.34-3.02.23-.92.55-1.71.97-2.37.42-.66.94-1.17,1.55-1.54.61-.37,1.29-.55,2.04-.55.82,0,1.52.18,2.1.54.57.36,1.04.85,1.39,1.47.36.62.61,1.35.77,2.17.16.83.24,1.71.24,2.65v1.02h-7.53ZM113.17,13.68c0-1.41-.22-2.54-.65-3.4-.44-.86-1.12-1.28-2.04-1.28-.55,0-1.01.17-1.38.49-.37.33-.67.73-.91,1.21-.24.48-.41.99-.51,1.54-.1.55-.16,1.03-.16,1.44h5.64Z"/>
  </g>
</svg>