<?xml version="1.0" encoding="utf-8"?>
<!-- Generator: Adobe Illustrator 27.9.2, SVG Export Plug-In . SVG Version: 6.00 Build 0)  -->
<svg version="1.1" id="Layer_1" xmlns="http://www.w3.org/2000/svg" xmlns:xlink="http://www.w3.org/1999/xlink" x="0px" y="0px"
	 viewBox="0 0 77.4 24" style="enable-background:new 0 0 77.4 24;" xml:space="preserve">
<g>
	<path d="M0,21.8v-20h2V20h5.7v1.8H0z"/>
	<path d="M11.5,7.8v9c0,0.4,0,0.9,0.1,1.3c0,0.4,0.2,0.9,0.3,1.2c0.2,0.4,0.4,0.7,0.7,0.9c0.3,0.2,0.7,0.4,1.2,0.4s0.9-0.1,1.3-0.4
		s0.7-0.6,0.9-1c0.2-0.4,0.5-1,0.6-1.5s0.2-1.2,0.2-1.8V7.8h1.9v10.5c0,0.3,0,0.6,0,1c0,0.4,0,0.7,0,1c0,0.3,0,0.6,0,0.9
		c0,0.3,0,0.5,0,0.6h-1.8c0-0.4-0.1-0.8-0.1-1.3c0-0.5,0-1,0-1.4h-0.1c-0.3,0.9-0.7,1.7-1.3,2.3s-1.3,0.9-2.3,0.9
		c-0.8,0-1.4-0.2-1.8-0.5s-0.8-0.7-1.1-1.3C10,20,9.9,19.5,9.8,18.8s-0.1-1.3-0.1-2v-9H11.5L11.5,7.8z"/>
	<path d="M26.2,8.3c0.6-0.6,1.3-0.9,2.3-0.9c0.5,0,0.9,0.1,1.3,0.3c0.4,0.2,0.7,0.4,0.9,0.7c0.2,0.3,0.4,0.6,0.6,1
		c0.1,0.4,0.2,0.8,0.3,1.2h0.1c0.1-0.4,0.3-0.8,0.5-1.2c0.2-0.4,0.5-0.7,0.8-1s0.7-0.5,1.1-0.7s0.9-0.3,1.4-0.3
		c0.8,0,1.3,0.2,1.8,0.5c0.4,0.3,0.8,0.7,1.1,1.3c0.2,0.5,0.4,1.1,0.5,1.8c0.1,0.6,0.1,1.3,0.1,1.9v9h-1.9v-9c0-0.4,0-0.9-0.1-1.3
		c-0.1-0.4-0.2-0.9-0.3-1.2c-0.2-0.4-0.4-0.7-0.7-0.9S35.3,9,34.9,9c-0.4,0-0.9,0.1-1.2,0.4s-0.7,0.6-0.9,1
		c-0.2,0.4-0.4,0.9-0.6,1.5s-0.2,1.2-0.2,1.8v8.1h-1.9v-9c0-0.4,0-0.9-0.1-1.3c-0.1-0.4-0.1-0.9-0.3-1.2c-0.1-0.4-0.4-0.7-0.7-0.9
		S28.4,9,27.9,9s-0.9,0.1-1.2,0.4s-0.7,0.6-0.9,1s-0.4,0.9-0.6,1.5c-0.1,0.6-0.2,1.2-0.2,1.8v8.1h-1.9V11.3c0-0.3,0-0.6,0-1
		c0-0.4,0-0.7,0-1c0-0.3,0-0.6,0-0.9c0-0.3,0-0.5,0-0.6h1.8c0,0.4,0.1,0.8,0.1,1.3c0,0.5,0,1,0,1.4h0.1C25.3,9.6,25.7,8.9,26.2,8.3
		L26.2,8.3z"/>
	<path d="M45.3,3.5c0,0.4-0.1,0.7-0.4,1s-0.5,0.4-0.9,0.4c-0.4,0-0.7-0.1-0.9-0.4s-0.3-0.6-0.3-1s0.1-0.7,0.3-1
		c0.2-0.3,0.5-0.4,0.9-0.4s0.7,0.1,0.9,0.4S45.3,3.2,45.3,3.5z M43.2,21.8v-14H45v14L43.2,21.8L43.2,21.8z"/>
	<path d="M50.4,15.2c0,0.8,0.1,1.5,0.2,2.1c0.1,0.6,0.3,1.2,0.6,1.7c0.3,0.5,0.6,0.9,1,1.1c0.4,0.3,0.8,0.4,1.4,0.4
		c0.7,0,1.2-0.2,1.6-0.6c0.4-0.4,0.7-0.9,1-1.5l1.4,0.8c-0.3,0.9-0.8,1.6-1.5,2.1c-0.7,0.6-1.5,0.9-2.6,0.9c-1.6,0-2.8-0.7-3.6-2
		c-0.9-1.3-1.3-3.1-1.3-5.4c0-1.1,0.1-2.1,0.3-3c0.2-0.9,0.6-1.7,1-2.4s0.9-1.2,1.6-1.5s1.3-0.6,2-0.6c0.8,0,1.5,0.2,2.1,0.5
		c0.6,0.4,1,0.9,1.4,1.5c0.4,0.6,0.6,1.4,0.8,2.2c0.2,0.8,0.2,1.7,0.2,2.7v1L50.4,15.2L50.4,15.2z M53.3,5.8l-3-4.1h2l2.6,4.1H53.3
		L53.3,5.8z M56.1,13.7c0-1.4-0.2-2.5-0.7-3.4C55,9.4,54.3,9,53.4,9c-0.6,0-1,0.2-1.4,0.5c-0.4,0.3-0.7,0.7-0.9,1.2
		c-0.2,0.5-0.4,1-0.5,1.5s-0.2,1-0.2,1.4H56.1L56.1,13.7z"/>
	<path d="M64.5,8.2c0.6-0.6,1.2-0.8,1.9-0.8c0.2,0,0.3,0,0.3,0l-0.1,1.9c-0.1,0-0.2,0-0.2,0c-0.1,0-0.2,0-0.2,0
		c-0.5,0-0.9,0.2-1.3,0.5S64.3,10.5,64,11c-0.2,0.5-0.4,1.1-0.6,1.7s-0.2,1.3-0.2,1.9v7.1h-1.9V11.4c0-0.3,0-0.6,0-1
		c0-0.4,0-0.7,0-1c0-0.3,0-0.6,0-0.9c0-0.3,0-0.5,0-0.6h1.8c0,0.4,0.1,0.8,0.1,1.3c0,0.5,0,1.1,0,1.7h0.1C63.6,9.7,64,8.8,64.5,8.2
		L64.5,8.2z"/>
	<path d="M69.9,15.2c0,0.8,0.1,1.5,0.2,2.1c0.1,0.6,0.3,1.2,0.6,1.7c0.3,0.5,0.6,0.9,1,1.1c0.4,0.3,0.8,0.4,1.4,0.4
		c0.7,0,1.2-0.2,1.6-0.6c0.4-0.4,0.7-0.9,1-1.5l1.4,0.8c-0.3,0.9-0.8,1.6-1.5,2.1C74.8,22,74,22.3,73,22.3c-1.6,0-2.8-0.7-3.6-2
		C68.5,19,68,17.2,68,14.8c0-1.1,0.1-2.1,0.3-3c0.2-0.9,0.6-1.7,1-2.4s0.9-1.2,1.6-1.5s1.3-0.6,2-0.6c0.8,0,1.5,0.2,2.1,0.5
		c0.6,0.4,1,0.9,1.4,1.5c0.4,0.6,0.6,1.4,0.8,2.2c0.2,0.8,0.2,1.7,0.2,2.7v1L69.9,15.2L69.9,15.2z M75.6,13.7c0-1.4-0.2-2.5-0.7-3.4
		c-0.4-0.9-1.1-1.3-2-1.3c-0.6,0-1,0.2-1.4,0.5c-0.4,0.3-0.7,0.7-0.9,1.2c-0.2,0.5-0.4,1-0.5,1.5s-0.2,1-0.2,1.4H75.6L75.6,13.7z"/>
</g>
</svg>
