<?xml version="1.0" encoding="UTF-8"?>
<svg id="Layer_2" data-name="Layer 2" xmlns="http://www.w3.org/2000/svg" viewBox="0 0 185.1 34">
  <defs>
    <style>
      .cls-1 {
        stroke-linejoin: round;
      }

      .cls-1, .cls-2 {
        fill: none;
        stroke: #00aeef;
        stroke-linecap: round;
        stroke-width: 3px;
      }

      .cls-2 {
        stroke-miterlimit: 10;
      }

      .cls-3 {
        fill: #00aeef;
        stroke-width: 0px;
      }
    </style>
  </defs>
  <g id="Artboard_2" data-name="Artboard 2">
    <g id="Final">
      <path class="cls-3" d="M54.75,4.37c1.26,0,2.53.06,3.76.11,1.2.05,2.33.1,3.42.1.24,0,.47,0,.69,0,4.49.07,6.85,6.39,6.85,12.61,0,6.23-2.36,12.55-6.86,12.61-.12,0-.25,0-.37,0-1.07,0-2.19.05-3.38.1-1.25.05-2.54.11-3.83.11-4.19,0-6.9-.63-8.81-2.05-2.53-1.89-3.76-5.41-3.75-10.74.1-11.85,5.86-12.83,12.27-12.83M54.75,1.37c-7.42,0-15.16,1.79-15.27,15.81,0,14.03,8.04,15.82,15.56,15.82,2.58,0,5.1-.21,7.21-.21.12,0,.24,0,.36,0,13.16-.09,13.15-31.13,0-31.22-.22,0-.45,0-.67,0-2.14,0-4.65-.21-7.19-.21h0Z"/>
      <path class="cls-3" d="M92.54,1v3c3.81,0,9.14.28,11.5,2.66.98.98,1.44,2.37,1.43,4.22-.01,1.18.02,2.43.06,3.75.14,4.88.31,10.96-2.28,13.66-1.08,1.12-2.68,1.68-4.87,1.71h-17.7c-1.22,0-2.21-.91-2.21-2.02V5.92c0-.93.81-1.7,1.83-1.74.69.05,1.46.07,2.36.07,1.4,0,2.93-.06,4.54-.12,1.74-.07,3.55-.13,5.34-.13V1M92.54,1c-3.51,0-7.03.25-9.88.25-.82,0-1.58-.02-2.27-.07-2.72,0-4.92,2.12-4.92,4.74v22.06c0,2.77,2.33,5.02,5.21,5.02h17.7c12.39-.16,10-14.07,10.09-22.09.06-8.6-7.93-9.91-15.94-9.91h0Z"/>
      <path class="cls-2" d="M2.57,1.5h29.12s11.76,8.18-1.61,14.59H8.64s-16.07,8.41,0,15.41h26.71"/>
      <line class="cls-1" x1="112.6" y1="3" x2="112.6" y2="31"/>
      <g>
        <path class="cls-1" d="M118.6,31.08V11.37s13.62-21.09,29,0v20.63"/>
        <line class="cls-1" x1="119.04" y1="18.7" x2="147.16" y2="18.7"/>
      </g>
      <path class="cls-1" d="M183.6,2.97l-23.4-.97s-15.18,16.72.5,30.5h22.9"/>
    </g>
  </g>
</svg>